<?xml version="1.0" encoding="UTF-8" standalone="no"?>
<!-- Created with Inkscape (http://www.inkscape.org/) -->

<svg
   width="200mm"
   height="200mm"
   viewBox="0 0 200 200"
   version="1.1"
   id="svg1"
   xmlns="http://www.w3.org/2000/svg"
   xmlns:svg="http://www.w3.org/2000/svg">
  <defs
     id="defs1" />
  <g
     id="layer1">
    <rect
       style="fill:#000000;stroke-width:0.264583"
       id="rect1"
       width="200"
       height="200"
       x="-2.220446e-16"
       y="0" />
    <path
       d="m 150.96124,167.36889 q 0,0.89432 -0.44716,1.67685 -0.33537,0.67074 -1.45327,1.1179 -1.1179,0.44716 -3.01833,0.67074 -1.90043,0.33537 -4.91876,0.33537 -3.91265,0 -6.37204,-0.33537 -2.45938,-0.33537 -3.68907,-1.22969 -1.22969,-0.89432 -2.01222,-2.01222 L 75.838334,95.264312 v 72.328158 q 0,0.78253 -0.44716,1.56506 -0.44716,0.67074 -1.565061,1.1179 -1.1179,0.33537 -3.018331,0.55895 -1.78864,0.33537 -4.583391,0.33537 -2.682961,0 -4.583392,-0.33537 -1.900431,-0.22358 -3.018331,-0.55895 -1.1179,-0.44716 -1.56506,-1.1179 -0.447161,-0.78253 -0.447161,-1.56506 V 28.749239 q 0,-0.89432 0.447161,-1.56506 0.44716,-0.670741 1.56506,-1.006111 1.1179,-0.44716 3.018331,-0.67074 1.900431,-0.33537 4.583392,-0.33537 2.794751,0 4.583391,0.33537 1.900431,0.22358 3.018331,0.67074 1.117901,0.33537 1.565061,1.006111 0.44716,0.67074 0.44716,1.56506 V 93.028511 L 127.03817,28.749239 q 0.67074,-1.00611 1.56506,-1.67685 0.89432,-0.670741 2.12401,-1.006111 1.34148,-0.44716 3.13012,-0.67074 1.90043,-0.22358 4.80698,-0.22358 2.90654,0 4.69518,0.33537 1.78864,0.22358 2.79475,0.67074 1.1179,0.44716 1.45327,1.117901 0.44716,0.67074 0.44716,1.45327 0,1.453271 -0.78253,2.906541 -0.67074,1.453271 -2.68296,4.024442 L 96.631281,93.028511 148.27828,161.6676 q 1.90043,2.90654 2.2358,4.02444 0.44716,1.00611 0.44716,1.67685 z"
       id="text2"
       style="font-size:228.946px;font-family:Calibri;-inkscape-font-specification:'Calibri, Normal';fill:#fe0000;stroke-width:0.264167"
       transform="scale(1.0068813,0.99316572)"
       aria-label="K" />
  </g>
</svg>
